# xmcd
#
# Track frame offsets: 
#        150
#        15938
#        30944
#        45133
#        49622
#        65241
#        80321
#        93719
#        98629
#        117265
#        135807
#        154490
#        173079
#        176718
#        190280
#        203683
#        217245
#        223094
#        231157
#        243653
#        256715
#        268443
#        287552
#        302078
#
# Disc length: 4087 seconds
#
# Revision: 0
# Processed by: cddbd v1.5.2PL0 Copyright (c) Steve Scherf et al.
# Submitted via: ExactAudioCopy v0.95b4
#
DISCID=500ff518
DTITLE=The Beatles  - Strawberry Lane - Disc 2  FLAC
DYEAR=1900
DGENRE=
TTITLE0=Strawberry Fields Forever (Take 7-RM3)
TTITLE1=Strawberry Fields Forever (Take 26-RM9)
TTITLE2=Penny Lane (Take 9-RM8)
TTITLE3=Dave Mason on Penny Lane
TTITLE4=Penny Lane (Take 9-RM9)
TTITLE5=Penny Lane (Take 9-RM10)
TTITLE6=Penny Lane (Take 9-RM11)
TTITLE7=George Martin on finishing 'Strawberry Fields Forever'
TTITLE8=Strawberry Fields Forever (Edit take of 7 and 26 RS3)
TTITLE9=Strawberry Fields Forever (Edit take of 7 and 26-RS'71)
TTITLE10=Strawberry Fields Forever (Edit take of 7 and 26-RM12-US versio
TTITLE10=n)
TTITLE11=Strawberry Fields Forever (Edit take of 7 and 26-RM12-UK versio
TTITLE11=n)
TTITLE12=George Martin and Paul McCartney on 'Penny Lane'
TTITLE13=Penny Lane (Take 9-RM14-US edit)
TTITLE14=Penny Lane (Take 9-RM14-UK edit)
TTITLE15=Penny Lane (Take 9-RS'71)
TTITLE16=Strawberry Fields Forever (Take 1-RS'82, partial)
TTITLE17=Strawberry Fields Forever (Take 7-RS'82, partial)
TTITLE18=Strawberry Fields Forever (Take 26-RS'82, partial)
TTITLE19=Penny Lane (Take 9-RS'82, partial)
TTITLE20=Strawberry Fields Forever (Take 1-RS'95)
TTITLE21=Strawberry Fields Forever (Edit of takes 7 and 25-RM'95)
TTITLE22=Penny Lane (Take 9-RS'95)
TTITLE23=Penny Lane from Anthology video (including Please Release Me)
EXTD=
EXTT0=
EXTT1=
EXTT2=
EXTT3=
EXTT4=
EXTT5=
EXTT6=
EXTT7=
EXTT8=
EXTT9=
EXTT10=
EXTT11=
EXTT12=
EXTT13=
EXTT14=
EXTT15=
EXTT16=
EXTT17=
EXTT18=
EXTT19=
EXTT20=
EXTT21=
EXTT22=
EXTT23=
PLAYORDER=
